<?xml version="1.0" encoding="UTF-8" standalone="no"?>
<!-- Created with Inkscape (http://www.inkscape.org/) -->

<svg
   width="149.5612mm"
   height="51.207001mm"
   viewBox="0 0 149.5612 51.207001"
   version="1.1"
   id="svg5"
   inkscape:version="1.1.1 (3bf5ae0d25, 2021-09-20)"
   sodipodi:docname="logo-with-text-light.svg"
   xmlns:inkscape="http://www.inkscape.org/namespaces/inkscape"
   xmlns:sodipodi="http://sodipodi.sourceforge.net/DTD/sodipodi-0.dtd"
   xmlns="http://www.w3.org/2000/svg"
   xmlns:svg="http://www.w3.org/2000/svg">
  <sodipodi:namedview
     id="namedview7"
     pagecolor="#ffffff"
     bordercolor="#666666"
     borderopacity="1.0"
     inkscape:pageshadow="2"
     inkscape:pageopacity="0.0"
     inkscape:pagecheckerboard="0"
     inkscape:document-units="mm"
     showgrid="false"
     inkscape:zoom="1"
     inkscape:cx="431.5"
     inkscape:cy="252.5"
     inkscape:window-width="1920"
     inkscape:window-height="1009"
     inkscape:window-x="-8"
     inkscape:window-y="-8"
     inkscape:window-maximized="1"
     inkscape:current-layer="layer10"
     fit-margin-top="0"
     fit-margin-left="0"
     fit-margin-right="0"
     fit-margin-bottom="0" />
  <defs
     id="defs2">
    <style
       type="text/css"
       id="style9"><![CDATA[
    .fil0 {fill:none}
    .fil2 {fill:#D1CACA}
    .fil4 {fill:#1A1A1A}
    .fil3 {fill:#660000}
    .fil1 {fill:#1A1A1A;fill-rule:nonzero}
   ]]></style>
  </defs>
  <g
     inkscape:label="Layer 1"
     inkscape:groupmode="layer"
     id="layer1"
     transform="translate(-1.000004,-0.99999889)">
    <g
       style="clip-rule:evenodd;fill-rule:evenodd;image-rendering:optimizeQuality;shape-rendering:geometricPrecision;text-rendering:geometricPrecision"
       id="g90"
       transform="matrix(0.00708218,0,0,0.00708218,-10.298197,-19.576455)"
       inkscape:label="Phone">
      <g
         inkscape:groupmode="layer"
         id="layer2"
         inkscape:label="Grey background"
         style="display:none">
        <rect
           style="clip-rule:evenodd;fill:#333333;fill-rule:evenodd;stroke-width:140.872;image-rendering:optimizeQuality;shape-rendering:geometricPrecision;text-rendering:geometricPrecision"
           id="rect536"
           width="28647.865"
           height="9202.9473"
           x="-715.93793"
           y="1631.2477" />
      </g>
      <g
         inkscape:groupmode="layer"
         id="layer10"
         inkscape:label="Screen background">
        <rect
           style="fill:#ffffff;fill-opacity:1;stroke:none;stroke-width:37.0289"
           id="rect57452"
           width="3747.9092"
           height="5750.2139"
           x="5859.7979"
           y="3741.8057" />
      </g>
      <g
         inkscape:groupmode="layer"
         id="layer7"
         inkscape:label="? shadow"
         style="display:inline">
        <path
           id="rect16813"
           style="fill:#d1caca;fill-opacity:1;stroke:none;stroke-width:0.647586"
           d="m 181.42578,80.667969 -2.24023,2.240234 h 0.77343 v 15.556641 h -3.9707 l 0.0547,0.05469 -1.96289,1.964846 1,1 -10.61719,10.61718 7.0625,7.0625 -2.5293,2.5293 2.91211,2.91211 -1.20312,1.20117 -2.96094,-2.96094 -3.36719,3.36719 53.87305,53.87305 v -62.59375 z"
           transform="matrix(37.359024,0,0,37.359024,1454.0999,2764.1849)" />
      </g>
      <g
         inkscape:groupmode="layer"
         id="layer3"
         inkscape:label="Vector: ?"
         style="display:inline;opacity:1">
        <g
           aria-label="?"
           id="text4262"
           style="font-size:2689.85px;line-height:1.25;fill:#1a1a1a;stroke-width:37.359">
          <path
             d="m 7621.9283,6960.2813 q -13.4492,0 -24.2086,-8.0696 -8.0696,-10.7594 -8.0696,-24.2086 v -110.2839 q 0,-129.1128 64.5564,-207.1185 64.5564,-80.6955 188.2895,-169.4605 107.594,-78.0057 161.391,-139.8722 53.797,-64.5564 53.797,-158.7012 0,-104.9041 -72.6259,-166.7707 -72.626,-64.5564 -190.9794,-64.5564 -123.7331,0 -199.0489,67.2463 -75.3158,67.2462 -75.3158,172.1504 v 56.4868 q 0,29.5884 -32.2782,29.5884 l -247.4662,-10.7594 q -13.4492,0 -24.2086,-10.7594 -8.0696,-10.7594 -8.0696,-24.2087 v -40.3477 q 0,-153.3215 75.3158,-271.6749 75.3158,-121.0432 209.8083,-185.5996 134.4925,-67.2463 309.3328,-67.2463 260.9154,0 416.9268,139.8722 156.0113,137.1824 156.0113,365.8196 0,118.3534 -43.0376,204.4286 -40.3478,86.0752 -96.8346,139.8722 -53.7971,53.797 -147.9418,121.0433 -94.1448,67.2462 -139.8722,118.3534 -45.7275,48.4173 -45.7275,121.0433 v 91.4549 q 0,13.4492 -10.7594,24.2086 -8.0695,8.0696 -21.5188,8.0696 z m 115.6636,578.3177 q -83.3854,0 -137.1824,-53.797 -53.797,-53.797 -53.797,-137.1823 0,-83.3854 53.797,-134.4925 53.797,-53.797 137.1824,-53.797 83.3853,0 134.4925,53.797 53.797,51.1071 53.797,134.4925 0,83.3853 -53.797,137.1823 -53.797,53.797 -134.4925,53.797 z"
             style="font-weight:600;font-family:Barlow;-inkscape-font-specification:'Barlow Semi-Bold'"
             id="path66244" />
        </g>
      </g>
      <g
         inkscape:groupmode="layer"
         id="g66242"
         inkscape:label="Text: ?"
         style="display:none;opacity:1">
        <text
           xml:space="preserve"
           style="font-style:normal;font-weight:normal;font-size:2689.85px;line-height:1.25;font-family:sans-serif;fill:#1a1a1a;fill-opacity:1;stroke:none;stroke-width:37.359"
           x="7121.6162"
           y="7535.9092"
           id="text66240"><tspan
             sodipodi:role="line"
             id="tspan66238"
             style="font-style:normal;font-variant:normal;font-weight:600;font-stretch:normal;font-size:2689.85px;font-family:Barlow;-inkscape-font-specification:'Barlow Semi-Bold';fill:#1a1a1a;fill-opacity:1;stroke-width:37.359"
             x="7121.6162"
             y="7535.9092">?</tspan></text>
      </g>
      <g
         id="Layer_x0020_1"
         inkscape:label="Phone outline"
         inkscape:groupmode="layer"
         style="display:inline">
        <metadata
           id="CorelCorpID_0Corel-Layer" />
        <polygon
           class="fil0"
           points="0,0 29700,0 29700,21000 0,21000 "
           id="polygon14"
           transform="translate(5598.2845,4020.5861)" />
        <path
           class="fil3"
           d="m 6815.2189,3038.3361 h 2599.0998 c 207.5418,0 376.4713,170.136 376.4713,376.4713 v 6344.5063 c 0,207.5418 -168.9295,376.4713 -376.4713,376.4713 H 6168.4606 c -207.5419,0 -376.4713,-168.9295 -376.4713,-376.4713 V 7769.5664 C 5763.03,6097.1653 4065.2893,7648.9025 3299.0738,6080.2722 3688.8181,6301.0871 4352.4693,5988.5677 4550.3581,5837.7378 2998.6207,5925.8225 3155.4838,3949.3483 1595.2999,4579.2137 3468.0032,2759.6025 3530.7484,4890.5266 5185.05,3926.4221 4859.2576,3555.9841 4502.0925,3423.2538 3955.4852,3472.726 4906.3165,2541.2009 5696.6649,3037.1294 6815.2189,3038.3361 Z M 6056.2432,4016.92 H 9526.5361 V 9368.3627 H 6056.2432 Z"
           id="path50"
           style="fill:#21848d;fill-opacity:1;stroke-width:1.20664"
           sodipodi:nodetypes="csssssscccccccccccc" />
      </g>
      <g
         inkscape:groupmode="layer"
         id="layer9"
         inkscape:label="Text: Hvem der? light"
         style="display:none">
        <text
           xml:space="preserve"
           style="font-style:normal;font-weight:normal;font-size:2689.85px;line-height:1.25;font-family:sans-serif;fill:#000000;fill-opacity:1;stroke:none;stroke-width:37.359"
           x="10235.076"
           y="7541.332"
           id="text20013"><tspan
             sodipodi:role="line"
             id="tspan20011"
             style="font-style:normal;font-variant:normal;font-weight:600;font-stretch:normal;font-size:2689.85px;font-family:Barlow;-inkscape-font-specification:'Barlow Semi-Bold';fill:#cccccc;fill-opacity:1;stroke-width:37.359"
             x="10235.076"
             y="7541.332">Hvem der?</tspan></text>
      </g>
      <g
         inkscape:groupmode="layer"
         id="g66201"
         inkscape:label="Vector: Hvem der? light"
         style="display:inline">
        <g
           aria-label="Hvem der?"
           id="text66199"
           style="font-size:2689.85px;line-height:1.25;stroke-width:37.359">
          <path
             d="m 11456.268,5690.7152 q 0,-13.4493 8.07,-21.5188 10.759,-10.7594 24.208,-10.7594 h 247.467 q 13.449,0 21.518,10.7594 10.76,8.0695 10.76,21.5188 v 1818.3386 q 0,13.4493 -10.76,24.2087 -8.069,8.0695 -21.518,8.0695 h -247.467 q -13.449,0 -24.208,-8.0695 -8.07,-10.7594 -8.07,-24.2087 v -769.2971 q 0,-13.4492 -13.449,-13.4492 h -685.912 q -13.449,0 -13.449,13.4492 v 769.2971 q 0,13.4493 -10.76,24.2087 -8.069,8.0695 -21.518,8.0695 h -247.467 q -13.449,0 -24.208,-8.0695 -8.07,-10.7594 -8.07,-24.2087 V 5690.7152 q 0,-13.4493 8.07,-21.5188 10.759,-10.7594 24.208,-10.7594 h 247.467 q 13.449,0 21.518,10.7594 10.76,8.0695 10.76,21.5188 v 753.158 q 0,13.4492 13.449,13.4492 h 685.912 q 13.449,0 13.449,-13.4492 z"
             style="font-weight:600;font-family:Barlow;-inkscape-font-specification:'Barlow Semi-Bold';fill:#cccccc"
             id="path66203" />
          <path
             d="m 12486.478,7541.332 q -26.898,0 -34.968,-26.8985 l -433.066,-1312.6468 q -2.689,-5.3797 -2.689,-13.4493 0,-24.2086 29.588,-24.2086 h 274.365 q 29.588,0 37.658,26.8985 l 260.915,898.4099 q 2.69,8.0696 8.07,8.0696 5.379,0 8.069,-8.0696 l 260.916,-898.4099 q 8.069,-26.8985 37.657,-26.8985 l 274.365,5.3797 q 16.139,0 24.209,10.7594 8.069,8.0695 2.69,26.8985 l -430.376,1307.2671 q -8.07,26.8985 -34.968,26.8985 z"
             style="font-weight:600;font-family:Barlow;-inkscape-font-specification:'Barlow Semi-Bold';fill:#cccccc"
             id="path66205" />
          <path
             d="m 14557.661,6699.409 q 10.759,67.2462 10.759,150.6316 l -2.689,83.3853 q 0,32.2782 -32.279,32.2782 h -841.923 q -13.449,0 -13.449,13.4493 8.07,88.765 24.209,121.0432 64.556,193.6692 314.712,196.3591 182.91,0 290.504,-150.6316 10.759,-16.1391 26.898,-16.1391 10.76,0 18.829,8.0695 l 166.771,137.1824 q 24.209,18.8289 8.07,43.0376 -83.386,118.3534 -223.258,182.9098 -137.182,64.5564 -306.643,64.5564 -209.808,0 -357.75,-94.1448 -145.252,-94.1447 -212.498,-263.6053 -61.867,-145.2519 -61.867,-403.4775 0,-156.0113 32.279,-252.8459 53.797,-188.2895 201.738,-295.8835 150.632,-110.2839 360.44,-110.2839 529.901,0 597.147,554.1092 z m -597.147,-285.1242 q -99.524,0 -166.77,51.1072 -64.557,48.4173 -91.455,137.1823 -16.139,45.7275 -21.519,118.3535 -5.38,13.4492 10.759,13.4492 h 546.04 q 13.449,0 13.449,-13.4492 -5.38,-67.2463 -16.139,-102.2144 -24.209,-96.8346 -96.835,-150.6316 -69.936,-53.797 -177.53,-53.797 z"
             style="font-weight:600;font-family:Barlow;-inkscape-font-specification:'Barlow Semi-Bold';fill:#cccccc"
             id="path66207" />
          <path
             d="m 16324.888,6145.2998 q 207.119,0 322.782,126.423 118.354,123.7331 118.354,346.9906 v 890.3404 q 0,13.4493 -10.76,24.2087 -8.069,8.0695 -21.519,8.0695 h -244.776 q -13.449,0 -24.209,-8.0695 -8.069,-10.7594 -8.069,-24.2087 v -825.7839 q 0,-123.7332 -67.246,-196.3591 -64.557,-72.626 -174.841,-72.626 -110.283,0 -180.22,72.626 -69.936,72.6259 -69.936,193.6692 v 828.4738 q 0,13.4493 -10.759,24.2087 -8.07,8.0695 -21.519,8.0695 h -244.776 q -13.449,0 -24.209,-8.0695 -8.069,-10.7594 -8.069,-24.2087 v -825.7839 q 0,-123.7332 -67.247,-196.3591 -67.246,-72.626 -177.53,-72.626 -102.214,0 -169.46,59.1767 -64.557,59.1767 -75.316,161.391 v 874.2013 q 0,13.4493 -10.76,24.2087 -8.069,8.0695 -21.518,8.0695 h -247.467 q -13.449,0 -24.208,-8.0695 -8.07,-10.7594 -8.07,-24.2087 v -1309.957 q 0,-13.4492 8.07,-21.5188 10.759,-10.7594 24.208,-10.7594 h 247.467 q 13.449,0 21.518,10.7594 10.76,8.0696 10.76,21.5188 v 88.7651 q 0,8.0695 5.38,10.7594 5.379,2.6898 10.759,-5.3797 59.177,-75.3158 145.252,-110.2839 88.765,-37.6579 196.359,-37.6579 131.803,0 231.327,53.797 99.524,53.797 153.321,156.0113 8.07,10.7594 18.829,0 59.177,-107.594 164.081,-158.7011 104.904,-51.1072 234.017,-51.1072 z"
             style="font-weight:600;font-family:Barlow;-inkscape-font-specification:'Barlow Semi-Bold';fill:#cccccc"
             id="path66209" />
          <path
             d="m 18474.071,5690.7152 q 0,-13.4493 8.07,-21.5188 10.759,-10.7594 24.209,-10.7594 h 247.466 q 13.449,0 21.519,10.7594 10.759,8.0695 10.759,21.5188 v 1818.3386 q 0,13.4493 -10.759,24.2087 -8.07,8.0695 -21.519,8.0695 h -247.466 q -13.45,0 -24.209,-8.0695 -8.07,-10.7594 -8.07,-24.2087 v -80.6955 q 0,-8.0695 -5.379,-10.7594 -5.38,-2.6898 -10.76,5.3797 -118.353,139.8722 -309.333,139.8722 -190.979,0 -322.782,-99.5244 -131.802,-99.5245 -190.979,-277.0546 -48.417,-150.6316 -48.417,-336.2312 0,-190.9794 45.727,-328.1618 59.177,-177.5301 190.98,-277.0545 131.802,-99.5245 330.851,-99.5245 185.6,0 303.953,134.4925 5.38,5.3797 10.76,5.3797 5.379,-2.6898 5.379,-10.7594 z m -64.556,1474.0378 q 61.867,-110.2838 61.867,-312.0226 0,-209.8083 -67.247,-320.0922 -72.626,-118.3534 -204.428,-118.3534 -137.183,0 -215.188,112.9737 -80.696,118.3534 -80.696,328.1618 0,188.2895 64.557,309.3327 75.315,129.1128 228.637,129.1128 137.182,0 212.498,-129.1128 z"
             style="font-weight:600;font-family:Barlow;-inkscape-font-specification:'Barlow Semi-Bold';fill:#cccccc"
             id="path66211" />
          <path
             d="m 20284.335,6699.409 q 10.76,67.2462 10.76,150.6316 l -2.69,83.3853 q 0,32.2782 -32.278,32.2782 h -841.923 q -13.45,0 -13.45,13.4493 8.07,88.765 24.209,121.0432 64.556,193.6692 314.712,196.3591 182.91,0 290.504,-150.6316 10.76,-16.1391 26.899,-16.1391 10.759,0 18.829,8.0695 l 166.77,137.1824 q 24.209,18.8289 8.07,43.0376 -83.385,118.3534 -223.258,182.9098 -137.182,64.5564 -306.642,64.5564 -209.809,0 -357.751,-94.1448 -145.251,-94.1447 -212.498,-263.6053 -61.866,-145.2519 -61.866,-403.4775 0,-156.0113 32.278,-252.8459 53.797,-188.2895 201.739,-295.8835 150.631,-110.2839 360.44,-110.2839 529.9,0 597.146,554.1092 z m -597.146,-285.1242 q -99.525,0 -166.771,51.1072 -64.556,48.4173 -91.455,137.1823 -16.139,45.7275 -21.519,118.3535 -5.379,13.4492 10.76,13.4492 h 546.039 q 13.449,0 13.449,-13.4492 -5.379,-67.2463 -16.139,-102.2144 -24.208,-96.8346 -96.834,-150.6316 -69.936,-53.797 -177.53,-53.797 z"
             style="font-weight:600;font-family:Barlow;-inkscape-font-specification:'Barlow Semi-Bold';fill:#cccccc"
             id="path66213" />
          <path
             d="m 21220.399,6150.6795 q 86.076,0 150.632,34.9681 21.519,10.7594 16.139,40.3477 l -45.727,242.0865 q -2.69,32.2782 -37.658,18.829 -40.348,-13.4493 -94.145,-13.4493 -34.968,0 -53.797,2.6899 -112.974,5.3797 -188.29,80.6955 -75.315,72.6259 -75.315,190.9794 v 761.2275 q 0,13.4493 -10.76,24.2087 -8.069,8.0695 -21.519,8.0695 h -247.466 q -13.449,0 -24.208,-8.0695 -8.07,-10.7594 -8.07,-24.2087 v -1309.957 q 0,-13.4492 8.07,-21.5188 10.759,-10.7594 24.208,-10.7594 h 247.466 q 13.45,0 21.519,10.7594 10.76,8.0696 10.76,21.5188 v 121.0433 q 0,10.7594 2.69,13.4492 5.379,0 10.759,-8.0695 112.974,-174.8403 314.712,-174.8403 z"
             style="font-weight:600;font-family:Barlow;-inkscape-font-specification:'Barlow Semi-Bold';fill:#cccccc"
             id="path66215" />
          <path
             d="m 21960.103,6965.7041 q -13.449,0 -24.209,-8.0695 -8.069,-10.7594 -8.069,-24.2087 v -110.2838 q 0,-129.1128 64.556,-207.1185 64.557,-80.6955 188.29,-169.4606 107.594,-78.0056 161.391,-139.8722 53.797,-64.5564 53.797,-158.7011 0,-104.9042 -72.626,-166.7707 -72.626,-64.5564 -190.979,-64.5564 -123.734,0 -199.049,67.2462 -75.316,67.2463 -75.316,172.1504 v 56.4869 q 0,29.5883 -32.278,29.5883 l -247.467,-10.7594 q -13.449,0 -24.208,-10.7594 -8.07,-10.7594 -8.07,-24.2086 v -40.3478 q 0,-153.3214 75.316,-271.6748 75.316,-121.0433 209.808,-185.5997 134.493,-67.2462 309.333,-67.2462 260.916,0 416.927,139.8722 156.011,137.1823 156.011,365.8196 0,118.3534 -43.037,204.4286 -40.348,86.0752 -96.835,139.8722 -53.797,53.797 -147.942,121.0432 -94.145,67.2463 -139.872,118.3535 -45.727,48.4173 -45.727,121.0432 v 91.4549 q 0,13.4493 -10.76,24.2087 -8.069,8.0695 -21.519,8.0695 z m 115.664,578.3178 q -83.386,0 -137.183,-53.797 -53.797,-53.797 -53.797,-137.1824 0,-83.3853 53.797,-134.4925 53.797,-53.797 137.183,-53.797 83.385,0 134.492,53.797 53.797,51.1072 53.797,134.4925 0,83.3854 -53.797,137.1824 -53.797,53.797 -134.492,53.797 z"
             style="font-weight:600;font-family:Barlow;-inkscape-font-specification:'Barlow Semi-Bold';fill:#cccccc"
             id="path66217" />
        </g>
      </g>
      <g
         inkscape:groupmode="layer"
         id="g57556"
         inkscape:label="Text: Hvem der? dark"
         style="display:none">
        <text
           xml:space="preserve"
           style="font-style:normal;font-weight:normal;font-size:2689.85px;line-height:1.25;font-family:sans-serif;fill:#000000;fill-opacity:1;stroke:none;stroke-width:37.359"
           x="10235.076"
           y="7541.332"
           id="text57554"><tspan
             sodipodi:role="line"
             id="tspan57552"
             style="font-style:normal;font-variant:normal;font-weight:600;font-stretch:normal;font-size:2689.85px;font-family:Barlow;-inkscape-font-specification:'Barlow Semi-Bold';fill:#1a1a1a;fill-opacity:1;stroke-width:37.359"
             x="10235.076"
             y="7541.332">Hvem der?</tspan></text>
      </g>
      <g
         inkscape:groupmode="layer"
         id="g66160"
         inkscape:label="Vector: Hvem der? dark"
         style="display:none">
        <g
           aria-label="Hvem der?"
           id="text66158"
           style="font-size:2689.85px;line-height:1.25;stroke-width:37.359">
          <path
             d="m 11456.268,5690.7152 q 0,-13.4493 8.07,-21.5188 10.759,-10.7594 24.208,-10.7594 h 247.467 q 13.449,0 21.518,10.7594 10.76,8.0695 10.76,21.5188 v 1818.3386 q 0,13.4493 -10.76,24.2087 -8.069,8.0695 -21.518,8.0695 h -247.467 q -13.449,0 -24.208,-8.0695 -8.07,-10.7594 -8.07,-24.2087 v -769.2971 q 0,-13.4492 -13.449,-13.4492 h -685.912 q -13.449,0 -13.449,13.4492 v 769.2971 q 0,13.4493 -10.76,24.2087 -8.069,8.0695 -21.518,8.0695 h -247.467 q -13.449,0 -24.208,-8.0695 -8.07,-10.7594 -8.07,-24.2087 V 5690.7152 q 0,-13.4493 8.07,-21.5188 10.759,-10.7594 24.208,-10.7594 h 247.467 q 13.449,0 21.518,10.7594 10.76,8.0695 10.76,21.5188 v 753.158 q 0,13.4492 13.449,13.4492 h 685.912 q 13.449,0 13.449,-13.4492 z"
             style="font-weight:600;font-family:Barlow;-inkscape-font-specification:'Barlow Semi-Bold';fill:#1a1a1a"
             id="path66162" />
          <path
             d="m 12486.478,7541.332 q -26.898,0 -34.968,-26.8985 l -433.066,-1312.6468 q -2.689,-5.3797 -2.689,-13.4493 0,-24.2086 29.588,-24.2086 h 274.365 q 29.588,0 37.658,26.8985 l 260.915,898.4099 q 2.69,8.0696 8.07,8.0696 5.379,0 8.069,-8.0696 l 260.916,-898.4099 q 8.069,-26.8985 37.657,-26.8985 l 274.365,5.3797 q 16.139,0 24.209,10.7594 8.069,8.0695 2.69,26.8985 l -430.376,1307.2671 q -8.07,26.8985 -34.968,26.8985 z"
             style="font-weight:600;font-family:Barlow;-inkscape-font-specification:'Barlow Semi-Bold';fill:#1a1a1a"
             id="path66164" />
          <path
             d="m 14557.661,6699.409 q 10.759,67.2462 10.759,150.6316 l -2.689,83.3853 q 0,32.2782 -32.279,32.2782 h -841.923 q -13.449,0 -13.449,13.4493 8.07,88.765 24.209,121.0432 64.556,193.6692 314.712,196.3591 182.91,0 290.504,-150.6316 10.759,-16.1391 26.898,-16.1391 10.76,0 18.829,8.0695 l 166.771,137.1824 q 24.209,18.8289 8.07,43.0376 -83.386,118.3534 -223.258,182.9098 -137.182,64.5564 -306.643,64.5564 -209.808,0 -357.75,-94.1448 -145.252,-94.1447 -212.498,-263.6053 -61.867,-145.2519 -61.867,-403.4775 0,-156.0113 32.279,-252.8459 53.797,-188.2895 201.738,-295.8835 150.632,-110.2839 360.44,-110.2839 529.901,0 597.147,554.1092 z m -597.147,-285.1242 q -99.524,0 -166.77,51.1072 -64.557,48.4173 -91.455,137.1823 -16.139,45.7275 -21.519,118.3535 -5.38,13.4492 10.759,13.4492 h 546.04 q 13.449,0 13.449,-13.4492 -5.38,-67.2463 -16.139,-102.2144 -24.209,-96.8346 -96.835,-150.6316 -69.936,-53.797 -177.53,-53.797 z"
             style="font-weight:600;font-family:Barlow;-inkscape-font-specification:'Barlow Semi-Bold';fill:#1a1a1a"
             id="path66166" />
          <path
             d="m 16324.888,6145.2998 q 207.119,0 322.782,126.423 118.354,123.7331 118.354,346.9906 v 890.3404 q 0,13.4493 -10.76,24.2087 -8.069,8.0695 -21.519,8.0695 h -244.776 q -13.449,0 -24.209,-8.0695 -8.069,-10.7594 -8.069,-24.2087 v -825.7839 q 0,-123.7332 -67.246,-196.3591 -64.557,-72.626 -174.841,-72.626 -110.283,0 -180.22,72.626 -69.936,72.6259 -69.936,193.6692 v 828.4738 q 0,13.4493 -10.759,24.2087 -8.07,8.0695 -21.519,8.0695 h -244.776 q -13.449,0 -24.209,-8.0695 -8.069,-10.7594 -8.069,-24.2087 v -825.7839 q 0,-123.7332 -67.247,-196.3591 -67.246,-72.626 -177.53,-72.626 -102.214,0 -169.46,59.1767 -64.557,59.1767 -75.316,161.391 v 874.2013 q 0,13.4493 -10.76,24.2087 -8.069,8.0695 -21.518,8.0695 h -247.467 q -13.449,0 -24.208,-8.0695 -8.07,-10.7594 -8.07,-24.2087 v -1309.957 q 0,-13.4492 8.07,-21.5188 10.759,-10.7594 24.208,-10.7594 h 247.467 q 13.449,0 21.518,10.7594 10.76,8.0696 10.76,21.5188 v 88.7651 q 0,8.0695 5.38,10.7594 5.379,2.6898 10.759,-5.3797 59.177,-75.3158 145.252,-110.2839 88.765,-37.6579 196.359,-37.6579 131.803,0 231.327,53.797 99.524,53.797 153.321,156.0113 8.07,10.7594 18.829,0 59.177,-107.594 164.081,-158.7011 104.904,-51.1072 234.017,-51.1072 z"
             style="font-weight:600;font-family:Barlow;-inkscape-font-specification:'Barlow Semi-Bold';fill:#1a1a1a"
             id="path66168" />
          <path
             d="m 18474.071,5690.7152 q 0,-13.4493 8.07,-21.5188 10.759,-10.7594 24.209,-10.7594 h 247.466 q 13.449,0 21.519,10.7594 10.759,8.0695 10.759,21.5188 v 1818.3386 q 0,13.4493 -10.759,24.2087 -8.07,8.0695 -21.519,8.0695 h -247.466 q -13.45,0 -24.209,-8.0695 -8.07,-10.7594 -8.07,-24.2087 v -80.6955 q 0,-8.0695 -5.379,-10.7594 -5.38,-2.6898 -10.76,5.3797 -118.353,139.8722 -309.333,139.8722 -190.979,0 -322.782,-99.5244 -131.802,-99.5245 -190.979,-277.0546 -48.417,-150.6316 -48.417,-336.2312 0,-190.9794 45.727,-328.1618 59.177,-177.5301 190.98,-277.0545 131.802,-99.5245 330.851,-99.5245 185.6,0 303.953,134.4925 5.38,5.3797 10.76,5.3797 5.379,-2.6898 5.379,-10.7594 z m -64.556,1474.0378 q 61.867,-110.2838 61.867,-312.0226 0,-209.8083 -67.247,-320.0922 -72.626,-118.3534 -204.428,-118.3534 -137.183,0 -215.188,112.9737 -80.696,118.3534 -80.696,328.1618 0,188.2895 64.557,309.3327 75.315,129.1128 228.637,129.1128 137.182,0 212.498,-129.1128 z"
             style="font-weight:600;font-family:Barlow;-inkscape-font-specification:'Barlow Semi-Bold';fill:#1a1a1a"
             id="path66170" />
          <path
             d="m 20284.335,6699.409 q 10.76,67.2462 10.76,150.6316 l -2.69,83.3853 q 0,32.2782 -32.278,32.2782 h -841.923 q -13.45,0 -13.45,13.4493 8.07,88.765 24.209,121.0432 64.556,193.6692 314.712,196.3591 182.91,0 290.504,-150.6316 10.76,-16.1391 26.899,-16.1391 10.759,0 18.829,8.0695 l 166.77,137.1824 q 24.209,18.8289 8.07,43.0376 -83.385,118.3534 -223.258,182.9098 -137.182,64.5564 -306.642,64.5564 -209.809,0 -357.751,-94.1448 -145.251,-94.1447 -212.498,-263.6053 -61.866,-145.2519 -61.866,-403.4775 0,-156.0113 32.278,-252.8459 53.797,-188.2895 201.739,-295.8835 150.631,-110.2839 360.44,-110.2839 529.9,0 597.146,554.1092 z m -597.146,-285.1242 q -99.525,0 -166.771,51.1072 -64.556,48.4173 -91.455,137.1823 -16.139,45.7275 -21.519,118.3535 -5.379,13.4492 10.76,13.4492 h 546.039 q 13.449,0 13.449,-13.4492 -5.379,-67.2463 -16.139,-102.2144 -24.208,-96.8346 -96.834,-150.6316 -69.936,-53.797 -177.53,-53.797 z"
             style="font-weight:600;font-family:Barlow;-inkscape-font-specification:'Barlow Semi-Bold';fill:#1a1a1a"
             id="path66172" />
          <path
             d="m 21220.399,6150.6795 q 86.076,0 150.632,34.9681 21.519,10.7594 16.139,40.3477 l -45.727,242.0865 q -2.69,32.2782 -37.658,18.829 -40.348,-13.4493 -94.145,-13.4493 -34.968,0 -53.797,2.6899 -112.974,5.3797 -188.29,80.6955 -75.315,72.6259 -75.315,190.9794 v 761.2275 q 0,13.4493 -10.76,24.2087 -8.069,8.0695 -21.519,8.0695 h -247.466 q -13.449,0 -24.208,-8.0695 -8.07,-10.7594 -8.07,-24.2087 v -1309.957 q 0,-13.4492 8.07,-21.5188 10.759,-10.7594 24.208,-10.7594 h 247.466 q 13.45,0 21.519,10.7594 10.76,8.0696 10.76,21.5188 v 121.0433 q 0,10.7594 2.69,13.4492 5.379,0 10.759,-8.0695 112.974,-174.8403 314.712,-174.8403 z"
             style="font-weight:600;font-family:Barlow;-inkscape-font-specification:'Barlow Semi-Bold';fill:#1a1a1a"
             id="path66174" />
          <path
             d="m 21960.103,6965.7041 q -13.449,0 -24.209,-8.0695 -8.069,-10.7594 -8.069,-24.2087 v -110.2838 q 0,-129.1128 64.556,-207.1185 64.557,-80.6955 188.29,-169.4606 107.594,-78.0056 161.391,-139.8722 53.797,-64.5564 53.797,-158.7011 0,-104.9042 -72.626,-166.7707 -72.626,-64.5564 -190.979,-64.5564 -123.734,0 -199.049,67.2462 -75.316,67.2463 -75.316,172.1504 v 56.4869 q 0,29.5883 -32.278,29.5883 l -247.467,-10.7594 q -13.449,0 -24.208,-10.7594 -8.07,-10.7594 -8.07,-24.2086 v -40.3478 q 0,-153.3214 75.316,-271.6748 75.316,-121.0433 209.808,-185.5997 134.493,-67.2462 309.333,-67.2462 260.916,0 416.927,139.8722 156.011,137.1823 156.011,365.8196 0,118.3534 -43.037,204.4286 -40.348,86.0752 -96.835,139.8722 -53.797,53.797 -147.942,121.0432 -94.145,67.2463 -139.872,118.3535 -45.727,48.4173 -45.727,121.0432 v 91.4549 q 0,13.4493 -10.76,24.2087 -8.069,8.0695 -21.519,8.0695 z m 115.664,578.3178 q -83.386,0 -137.183,-53.797 -53.797,-53.797 -53.797,-137.1824 0,-83.3853 53.797,-134.4925 53.797,-53.797 137.183,-53.797 83.385,0 134.492,53.797 53.797,51.1072 53.797,134.4925 0,83.3854 -53.797,137.1824 -53.797,53.797 -134.492,53.797 z"
             style="font-weight:600;font-family:Barlow;-inkscape-font-specification:'Barlow Semi-Bold';fill:#1a1a1a"
             id="path66176" />
        </g>
      </g>
      <g
         inkscape:groupmode="layer"
         id="layer4"
         inkscape:label="Buttons"
         style="display:inline;opacity:1" />
    </g>
  </g>
</svg>
